Coordinates
version=1
nRows=18
nColumns=28
inDegrees=yes

Units are S.I. units (second, meters, Newtons, ...)
Angles are in degrees.

endheader
time	pelvis_tilt	pelvis_list	pelvis_rotation	pelvis_tx	pelvis_ty	pelvis_tz	hip_flexion_r	hip_adduction_r	hip_rotation_r	knee_angle_r	ankle_angle_r	subtalar_angle_r	mtp_angle_r	hip_flexion_l	hip_adduction_l	hip_rotation_l	knee_angle_l	socket_flexion	socket_adduction	socket_rotation	socket_tx	socket_ty	socket_tz	foot_flex	lumbar_extension	lumbar_bending	lumbar_rotation
      0.31250000	      1.51278702	      0.58388051	     -4.58954766	     -0.42900232	      1.03106274	      0.25244061	     14.89122739	     -1.45532431	     -3.86444767	    -66.76586947	      2.18244700	    -17.57863348	      1.37550253	     -3.82508118	      1.72973928	      9.40029053	      7.52756094	      9.76953674	      0.00000000	      0.00000000	      0.00000000	      0.00000000	      0.00000000	      0.27954694	    -10.58218055	     -3.50469201	      3.04229038
      0.31666667	      1.54627370	      0.37966990	     -4.38437539	     -0.42359736	      1.03156627	      0.25218249	     15.33220753	     -1.30054469	     -4.09337338	    -66.36715714	      2.75247731	    -16.81832364	      1.42664597	     -4.28152364	      1.50622256	      9.59042321	      7.73091820	      9.83279299	      0.00000000	      0.00000000	      0.00000000	      0.00000000	      0.00000000	      0.34047014	    -10.62714690	     -3.22086397	      2.79484443
      0.32083333	      1.58772215	      0.23046191	     -4.22114757	     -0.41842988	      1.03202409	      0.25199412	     15.81698567	     -1.19588139	     -4.27806186	    -66.00369124	      3.21735792	    -16.41768789	      1.46729868	     -4.65834077	      1.35766320	      9.71119484	      7.73076536	      9.79910439	      0.00000000	      0.00000000	      0.00000000	      0.00000000	      0.00000000	      0.50068295	    -10.71436476	     -3.01176926	      2.66431357
      0.32500000	      1.62493029	      0.19260625	     -4.13222609	     -0.41346777	      1.03245891	      0.25196099	     16.34310639	     -1.17216827	     -4.34256101	    -65.60665900	      3.34899015	    -16.32983569	      1.48202893	     -4.95498604	      1.34629882	      9.72677443	      7.56466855	      9.64840485	      0.00000000	      0.00000000	      0.00000000	      0.00000000	      0.00000000	      0.52593198	    -10.84477664	     -2.97984559	      2.63358176
      0.32916667	      1.58440059	     -0.18258779	     -3.84139087	     -0.40787178	      1.03280845	      0.25159743	     16.75584570	     -0.84619316	     -4.69085642	    -65.04991308	      4.20360231	    -15.51790236	      1.62356219	     -5.42677734	      0.89473077	     10.03552173	      7.98946914	      9.82941554	      0.00000000	      0.00000000	      0.00000000	      0.00000000	      0.00000000	      0.67918481	    -10.75956951	     -2.45298577	      2.37552516
      0.33333333	      1.62909223	     -0.20660697	     -3.71166852	     -0.40297884	      1.03324589	      0.25151493	     17.23527615	     -0.84218352	     -4.75816074	    -64.54496961	      4.34697069	    -15.37768228	      1.63047337	     -5.69281250	      0.90290240	     10.03949877	      7.75904986	      9.68724412	      0.00000000	      0.00000000	      0.00000000	      0.00000000	      0.00000000	      0.75227691	    -10.88984670	     -2.43482086	      2.31834852
      0.33750000	      1.62313483	     -0.55258664	     -3.44957962	     -0.39744827	      1.03357424	      0.25122768	     17.60120758	     -0.57963432	     -5.14084615	    -63.91578118	      5.11295045	    -14.59983274	      1.71925446	     -6.18575458	      0.47747417	     10.34315656	      8.15077096	      9.84683939	      0.00000000	      0.00000000	      0.00000000	      0.00000000	      0.00000000	      0.91486713	    -10.85813647	     -1.94235860	      2.03129462
      0.34166667	      1.67216732	     -0.66450766	     -3.25775130	     -0.39227010	      1.03392602	      0.25106619	     17.98885569	     -0.54072674	     -5.35688331	    -63.30833132	      5.45752210	    -14.15633994	      1.68867045	     -6.58560874	      0.35018090	     10.48693979	      8.22083518	      9.84934777	      0.00000000	      0.00000000	      0.00000000	      0.00000000	      0.00000000	      1.02592166	    -10.92829026	     -1.78057022	      1.82714881
      0.34583333	      1.70950912	     -0.87793766	     -3.01432171	     -0.38708419	      1.03427851	      0.25081855	     18.34585599	     -0.39698013	     -5.64112111	    -62.63559439	      5.97014518	    -13.66925025	      1.63434142	     -6.97504351	      0.10070139	     10.68831803	      8.29715173	      9.84316346	      0.00000000	      0.00000000	      0.00000000	      0.00000000	      0.00000000	      1.10703457	    -11.01118709	     -1.47813021	      1.59115837
      0.35000000	      1.73181615	     -0.95337307	     -2.85083386	     -0.38196630	      1.03456058	      0.25076449	     18.74324431	     -0.36339719	     -5.79407379	    -61.95504848	      6.24025022	    -13.47371267	      1.58526252	     -7.31432960	      0.01385791	     10.78352467	      8.28180881	      9.79324729	      0.00000000	      0.00000000	      0.00000000	      0.00000000	      0.00000000	      1.25227015	    -11.05119750	     -1.37869014	      1.47717032
      0.35416667	      1.79501283	     -1.25165127	     -2.58314983	     -0.37671752	      1.03498425	      0.25051169	     18.99098590	     -0.13209292	     -6.11906607	    -61.11921818	      6.71625211	    -12.97211307	      1.37735884	     -7.75641569	     -0.34061205	     10.99402354	      8.41050608	      9.81104211	      0.00000000	      0.00000000	      0.00000000	      0.00000000	      0.00000000	      1.31897139	    -11.14792651	     -0.97301727	      1.18074345
      0.35833333	      1.81106458	     -1.24199210	     -2.48392889	     -0.37176232	      1.03514778	      0.25057932	     19.41541490	     -0.16456028	     -6.17938318	    -60.41499376	      6.88089682	    -12.95296735	      1.35188557	     -8.05496037	     -0.32464160	     11.00756155	      8.32734159	      9.72310013	      0.00000000	      0.00000000	      0.00000000	      0.00000000	      0.00000000	      1.43033447	    -11.20965588	     -0.98363449	      1.15339383
      0.36250000	      2.01857468	     -1.57816997	     -2.10415690	     -0.36651602	      1.03568903	      0.25011086	     19.45289663	      0.03241937	     -6.68041198	    -59.50665631	      7.54475653	    -12.46957186	      0.46180996	     -8.66474895	     -0.74070956	     11.35807317	      8.52302809	      9.78026287	      0.00000000	      0.00000000	      0.00000000	      0.00000000	      0.00000000	      1.56604437	    -11.47402679	     -0.48321149	      0.66310968
      0.36666667	      2.02342397	     -1.54471249	     -2.07323300	     -0.36181146	      1.03571940	      0.25030359	     19.94599627	     -0.02677591	     -6.72378119	    -58.84905090	      7.63701172	    -12.47733892	      0.45342203	     -8.92109407	     -0.70098085	     11.34510319	      8.39331915	      9.65793132	      0.00000000	      0.00000000	      0.00000000	      0.00000000	      0.00000000	      1.61801184	    -11.59627292	     -0.52194217	      0.66200225
      0.37083333	      1.90460742	     -1.83342967	     -1.79852503	     -0.35623563	      1.03580007	      0.25017044	     20.25786457	      0.24861156	     -7.00345406	    -57.76904447	      8.09919788	    -12.46454726	      0.34040998	     -9.22684733	     -1.07527222	     11.53214164	      8.64615303	      9.76939120	      0.00000000	      0.00000000	      0.00000000	      0.00000000	      0.00000000	      1.79791818	    -11.38122065	     -0.17850737	      0.62594798
      0.37500000	      1.90199311	     -1.79668250	     -1.76991320	     -0.35155108	      1.03575854	      0.25031605	     20.73163573	      0.17773435	     -7.05694816	    -57.04639170	      8.18222062	    -12.47206137	      0.32073584	     -9.49534794	     -1.02901049	     11.52409117	      8.57373106	      9.68440196	      0.00000000	      0.00000000	      0.00000000	      0.00000000	      0.00000000	      1.85559133	    -11.50020198	     -0.20850592	      0.60904740
      0.37916667	      2.00096317	     -2.19323998	     -1.35273404	     -0.34605638	      1.03621817	      0.24999262	     20.71432209	      0.51894386	     -7.50757321	    -55.81073548	      9.08040808	    -12.20704517	     -2.44091066	     -9.98715013	     -1.53860597	     11.82786167	      8.73611783	      9.73021431	      0.00000000	      0.00000000	      0.00000000	      0.00000000	      0.00000000	      2.02849678	    -11.56794056	      0.32216445	      0.19088735
      0.38333333	      1.97078269	     -2.15941250	     -1.28089094	     -0.34108852	      1.03613380	      0.25016087	     21.09803416	      0.45986504	     -7.57847336	    -54.90344980	      9.22477518	    -12.24973225	     -2.44524460	    -10.26202769	     -1.50892882	     11.82048243	      8.72202307	      9.68708881	      0.00000000	      0.00000000	      0.00000000	      0.00000000	      0.00000000	      2.12626405	    -11.57887923	      0.26444617	      0.18137384
